<svg xmlns="http://www.w3.org/2000/svg" xmlns:xlink="http://www.w3.org/1999/xlink" width="21.5" height="21.5" viewBox="0 0 21.5 21.5">
  <defs>
    <filter id="Ellipse_49" x="0" y="0" width="21.5" height="21.5" filterUnits="userSpaceOnUse">
      <feOffset dy="1" input="SourceAlpha"/>
      <feGaussianBlur stdDeviation="0.5" result="blur"/>
      <feFlood flood-opacity="0.161"/>
      <feComposite operator="in" in2="blur"/>
      <feComposite in="SourceGraphic"/>
    </filter>
  </defs>
  <g id="_001-motion-sensor" data-name="001-motion-sensor" transform="translate(7.463 5.055)">
    <g transform="matrix(1, 0, 0, 1, -7.46, -5.06)" filter="url(#Ellipse_49)">
      <circle id="Ellipse_49-2" data-name="Ellipse 49" cx="9" cy="9" r="9" transform="translate(1.75 0.75)" fill="#74baff" stroke="#fff" stroke-width="0.5"/>
    </g>
    <g id="Group_48" data-name="Group 48" transform="translate(0.559 0.304)">
      <g id="Group_47" data-name="Group 47" transform="translate(0 0)">
        <path id="Path_9" data-name="Path 9" d="M99.675,0a3.833,3.833,0,0,0-2.728,1.131l.364.364a3.34,3.34,0,0,1,4.729,0l.364-.364A3.833,3.833,0,0,0,99.675,0Z" transform="translate(-96.947 0)" fill="#fff"/>
      </g>
    </g>
    <g id="Group_50" data-name="Group 50" transform="translate(2.015 2.376)">
      <g id="Group_49" data-name="Group 49" transform="translate(0 0)">
        <path id="Path_10" data-name="Path 10" d="M183.092,120.85a1.805,1.805,0,0,0-1.272.514l.364.364a1.366,1.366,0,0,1,1.817,0l.364-.364A1.805,1.805,0,0,0,183.092,120.85Z" transform="translate(-181.82 -120.85)" fill="#fff"/>
      </g>
    </g>
    <g id="Group_52" data-name="Group 52" transform="translate(1.287 1.333)">
      <g id="Group_51" data-name="Group 51" transform="translate(0 0)">
        <path id="Path_11" data-name="Path 11" d="M141.384,60a2.81,2.81,0,0,0-2,.83l.364.364a2.311,2.311,0,0,1,3.273,0l.364-.364A2.81,2.81,0,0,0,141.384,60Z" transform="translate(-139.384 -60)" fill="#fff"/>
      </g>
    </g>
    <g id="Group_54" data-name="Group 54" transform="translate(0.972 7.525)">
      <g id="Group_53" data-name="Group 53" transform="translate(0 0)">
        <path id="Path_12" data-name="Path 12" d="M125.045,422.046,124.7,421h-2.772l-.343,1.046H121v.515h4.631v-.515Z" transform="translate(-121 -421)" fill="#fff"/>
      </g>
    </g>
    <g id="Group_56" data-name="Group 56" transform="translate(5.62 5.209)">
      <g id="Group_55" data-name="Group 55" transform="translate(0 0)">
        <path id="Path_13" data-name="Path 13" d="M392.257,286a.257.257,0,1,0,.257.257A.257.257,0,0,0,392.257,286Z" transform="translate(-392 -286)" fill="#fff"/>
      </g>
    </g>
    <g id="Group_58" data-name="Group 58" transform="translate(0.44 5.209)">
      <g id="Group_57" data-name="Group 57" transform="translate(0 0)">
        <path id="Path_14" data-name="Path 14" d="M90.257,286a.257.257,0,1,0,.257.257A.257.257,0,0,0,90.257,286Z" transform="translate(-90 -286)" fill="#fff"/>
      </g>
    </g>
    <g id="Group_60" data-name="Group 60" transform="translate(3.03 5.209)">
      <g id="Group_59" data-name="Group 59" transform="translate(0 0)">
        <path id="Path_15" data-name="Path 15" d="M241.257,286a.257.257,0,1,0,.257.257A.257.257,0,0,0,241.257,286Z" transform="translate(-241 -286)" fill="#fff"/>
      </g>
    </g>
    <g id="Group_62" data-name="Group 62" transform="translate(-1.104 3.923)">
      <g id="Group_61" data-name="Group 61" transform="translate(0 0)">
        <path id="Path_16" data-name="Path 16" d="M7.238,211H1.544a1.544,1.544,0,1,0,0,3.087H7.238a1.544,1.544,0,1,0,0-3.087ZM1.8,213.316a.772.772,0,1,1,.772-.772A.773.773,0,0,1,1.8,213.316Zm2.59,0a.772.772,0,1,1,.772-.772A.773.773,0,0,1,4.391,213.316Zm2.59,0a.772.772,0,1,1,.772-.772A.773.773,0,0,1,6.981,213.316Z" transform="translate(0 -211)" fill="#fff"/>
      </g>
    </g>
  </g>
</svg>
